PathFileType	4	(X/Y/Z)	36_2_20_p0_0-248_filt_butterworth.trc
DataRate	CameraRate	NumFrames	NumMarkers	Units	OrigDataRate	OrigDataStartFrame	OrigNumFrames
42.0	42.0	6	27	m	42.0	93	248
Frame#	Time	RHip			RKnee			RAnkle			RBigToe			RSmallToe			RHeel			LHip			LKnee			LAnkle			LBigToe			LSmallToe			LHeel			Neck			Head			Nose			RShoulder			RElbow			RWrist			RThumb			RIndex			RPinky			LShoulder			LElbow			LWrist			LThumb			LIndex			LPinky			
		X1	Y1	Z1	X2	Y2	Z2	X3	Y3	Z3	X4	Y4	Z4	X5	Y5	Z5	X6	Y6	Z6	X7	Y7	Z7	X8	Y8	Z8	X9	Y9	Z9	X10	Y10	Z10	X11	Y11	Z11	X12	Y12	Z12	X13	Y13	Z13	X14	Y14	Z14	X15	Y15	Z15	X16	Y16	Z16	X17	Y17	Z17	X18	Y18	Z18	X19	Y19	Z19	X20	Y20	Z20	X21	Y21	Z21	X22	Y22	Z22	X23	Y23	Z23	X24	Y24	Z24	X25	Y25	Z25	X26	Y26	Z26	X27	Y27	Z27	
93	2.2142857142857144	0.28991941597026194	0.811603570316669	0.6490677573274917	0.3471366629614624	0.3661996513779714	0.7089845916923243	0.3831378070178295	-0.018916524297279497	0.7306183112257388	0.34388759198801616	-0.026944660908417246	0.5399790160127513	0.4045996988343674	-0.01893521440023399	0.5499637153850092	0.3625998807034828	-0.09305302029105932	0.818517282810228	0.08144922380726342	0.7837423590556961	0.6699093143644302	0.1230353893086676	0.3351453069173601	0.7061153065839609	0.14275842802650274	-0.029518670782436557	0.7102467851568688	0.1846982754384252	-0.03323144761834067	0.5296583418275773	0.1254125195484008	-0.062027343926518236	0.5761077635386077	0.15158732788650944	-0.08513087413263488	0.7345942531721451	0.1727781626563672	1.29852920322148	0.6345259384752149	0.1536919548064954	1.5351484534360036	0.5897856580141607	0.1536941595033435	1.4087350047082152	0.5169225682658909	0.3129740348014378	1.2239851273493567	0.6406371390024553	0.37797674988360574	0.9501431354565283	0.6607632875361756	0.42051700684582577	0.7216291288824682	0.575248470256722	0.36783760002293253	0.6108953045153349	0.559750937725044	0.387801408179845	0.5690962117090244	0.5836505937615012	0.41651311704035177	0.5839703522511384	0.6295852297341382	0.013326108062487048	1.204446751979895	0.6299913161854624	0.0049035086201860215	0.9498152007107588	0.6212656092036069	0.020718796731273696	0.6921623889148446	0.5519817011688589	0.08686483823272645	0.5825429954175899	0.5600271925634024	0.06301510030883892	0.5596825722689915	0.5726130913059865	0.011495872950334041	0.5810796280749475	0.5269363977253497	
94	2.238095238095238	0.2900299216646573	0.8115008555211514	0.6494448931784126	0.34693803675428747	0.3663205508330488	0.7093123027116778	0.382917187945874	-0.019428251935813254	0.731503459862495	0.3425784664362484	-0.027850712308158096	0.5420394666274044	0.4044982882230123	-0.019051275288980367	0.5500271733731852	0.3623326787364292	-0.09261188259288933	0.8177569790372331	0.0819260188882747	0.7838802883356445	0.6698886498266979	0.12301795972687121	0.3354003884708403	0.7059823802977224	0.14267513522007363	-0.02945125193160337	0.7097122654963492	0.18528721665997694	-0.032709493426428156	0.528671417422148	0.12545643115882374	-0.06258859123952719	0.5758979287056726	0.1515157383144698	-0.0854039502498649	0.7339805666982503	0.17320213479881819	1.2991851048943968	0.6369356845867078	0.15317802317769327	1.5353405101795603	0.5877557474733311	0.15375935719227746	1.4088114912055099	0.5169300665559138	0.3129666069081578	1.223978722083375	0.6406553176391379	0.37794747020693553	0.9498105751398883	0.6607676874155219	0.4202992309087029	0.7209387890620792	0.577314700257931	0.36818094103155957	0.6089085939054198	0.5597344379814437	0.38825991920481684	0.5674232356615009	0.5835795081704451	0.4167621648297672	0.5829433613943928	0.6294476524956913	0.013313629178436738	1.2045588593609213	0.629992170359813	0.004870408910369988	0.9491602823428906	0.6212423880336013	0.02244923766683773	0.6917622098462118	0.549480285753534	0.08771963916196773	0.5836377595011674	0.5578775388181016	0.06463648283242597	0.5606678330821233	0.5708427369974285	0.011782338456689995	0.5821530516596553	0.5254303075748249	
95	2.261904761904762	0.2900896047118841	0.8114399300466109	0.649666021557652	0.34668464909575886	0.3665592424510901	0.7096539443148644	0.3826332634634789	-0.0201755939569732	0.732764365097613	0.34146083934282234	-0.028172850614330003	0.5429511839094859	0.4043763911918538	-0.019141250919831605	0.5499804987902219	0.3621341451740519	-0.09202735633425034	0.8168366837150515	0.08242942209321069	0.7840433990216855	0.6697320003524834	0.12298797554800335	0.3357389385317925	0.7058453857332193	0.14236417541828994	-0.02929332357747414	0.7089875977470546	0.18595766254655888	-0.03263583064890932	0.5278345654404845	0.12544268623498583	-0.06298862189968568	0.575767794165215	0.1511530157359817	-0.08563624142598708	0.7336178956731113	0.1735389833678479	1.2997300301738448	0.6388467766829464	0.15262390062828238	1.5351401402907563	0.5853672620012886	0.15376901120341724	1.4089260428768244	0.5170581161771582	0.3129592023728335	1.2239847505569559	0.6406612779817487	0.3780701241448407	0.9500582578049734	0.6600478657378673	0.42058975504749985	0.7208301073362005	0.577598423676126	0.36845903297424365	0.6073556160430175	0.5595673653556437	0.389083285610492	0.5658265361080403	0.5834288219315059	0.41705914981804193	0.5819552708055665	0.6293688958497892	0.013304270004581058	1.2045154025419256	0.6299694570515696	0.0048309312358191985	0.9483824244969881	0.6212042826109154	0.024257197744601666	0.6911939443547549	0.547186120069902	0.08874660459143038	0.5848809320018149	0.5552182806111743	0.06576663624306579	0.5612794167107289	0.5698237182348753	0.012389184282598938	0.5830959943433723	0.5232357855359028	
96	2.2857142857142856	0.2900176606238011	0.8115056287115168	0.6494524660084463	0.3462893307353892	0.3670910570597168	0.7097395377271697	0.3823709202964905	-0.020863659188573594	0.7339332374978924	0.3405653710421134	-0.02782382638743166	0.5417043490200272	0.40418911751260106	-0.018784759126282045	0.5492075268724652	0.3619248389581388	-0.09129876411301599	0.8157282253520771	0.08298336199865902	0.784178266689014	0.6696045135785825	0.12294926754138234	0.336143165371883	0.7057065864789498	0.14199348846606272	-0.029135480601173422	0.7081610458143822	0.18658783128154277	-0.033120527114671804	0.5272711688179393	0.1253381932649593	-0.06317111264143577	0.5758032331672693	0.1506320403973531	-0.0858223649910964	0.7336340707094164	0.17381258800653587	1.2999668270534654	0.6400430310914461	0.15211220914671836	1.5346627379127433	0.5830216055883486	0.15384204685597946	1.4089023508834118	0.5170072667726967	0.3129518150902651	1.2239976932561742	0.6406710215474364	0.37814920994676576	0.9503734825459837	0.659528378893893	0.4213299462493162	0.7213235016132563	0.5760618330113538	0.36867564078638737	0.6062455288132043	0.5592833760202428	0.39021548223606645	0.5644597669310418	0.5832593960966436	0.41732194385437904	0.5811568963056211	0.6293088957491495	0.013295250440650042	1.2041949672183339	0.6298907467878528	0.004801945315784709	0.9475734475864931	0.6211579491951422	0.025955696425806543	0.6905283181870089	0.5453967059315681	0.08977295345640446	0.5860851585258561	0.552529137378164	0.06610883731638884	0.5613984255054062	0.5697269185228654	0.013226599025745061	0.5836890817174197	0.5207974077959937	
97	2.3095238095238093	0.28989941216428106	0.8116259987553953	0.6490672558407379	0.3457511892862026	0.3679611781628316	0.7096081940995361	0.38221679106125683	-0.021217786637957523	0.734570044639188	0.3398037177012826	-0.02749070342504252	0.5396177624600329	0.40400391394850466	-0.018164132013143368	0.5480775769892972	0.361560801181805	-0.09043475842626372	0.8145566391400221	0.08358853473048963	0.7842644225690575	0.6695565679075662	0.1228844121998591	0.3365823020842049	0.7055742827600845	0.14179088013322705	-0.028890590099939724	0.7073727076444721	0.18699783632377515	-0.03440309510805532	0.5279054872488702	0.12517675095469366	-0.06323242678892257	0.5759550430974419	0.15018782587877036	-0.08588816598903018	0.733841254162817	0.1740642622275846	1.2999851571665624	0.6406592472854215	0.15161662064998338	1.5339489642625632	0.5808276600604889	0.1539281493658396	1.4086233666900618	0.5168318676477641	0.31294299017242144	1.224009843161065	0.6406955032808476	0.3781496367693531	0.9504962442490694	0.6593781895256975	0.42218794046720176	0.7223170586627872	0.573684788074132	0.36883384295034066	0.6056063203309096	0.5590141600148834	0.39133251810944525	0.5635138026436384	0.5830921910512245	0.41756536484104095	0.5809627726483595	0.6292916026381082	0.013290961553768129	1.203644351035836	0.629773422941664	0.004799615036745937	0.9468148529108684	0.6211217728124331	0.027278303685318764	0.6898117128870912	0.5445046564236511	0.09073497612336819	0.5872184956831052	0.5500110182318896	0.06583248631236638	0.561221523760623	0.5701110800181624	0.014133560542818037	0.5842097337006752	0.5182802988173041	
98	2.333333333333333	0.2898555693785719	0.8116902786496398	0.6489047615915666	0.3450777535197337	0.36900451683280755	0.7094639538967218	0.3822093820913583	-0.02114937732440267	0.7345348178896064	0.33934565458491284	-0.028034240489877772	0.5385468474883994	0.4038790869570794	-0.018380811117550064	0.5483375301793215	0.3610031994712013	-0.08938336893551432	0.8134385560281394	0.0842281733413735	0.7843046477408618	0.6695648887331651	0.12277575266621331	0.3370683339069428	0.7054486573732649	0.14173673226004035	-0.0285354674113212	0.7067483364799906	0.18720806669500367	-0.03606490038641232	0.529490995433858	0.12507480424457823	-0.06328343473655229	0.5760605008975828	0.14980060210481613	-0.08591081945526907	0.733958338991318	0.17419699965105057	1.2997639634144587	0.6406130257099611	0.15111513848478048	1.53296506121981	0.5791801948899177	0.15402494927612756	1.4082339794748167	0.5166422407447238	0.3129324020473892	1.2240170731438502	0.640724164269564	0.37813385129909055	0.9505052291741118	0.659330105129598	0.42293986291092645	0.7237346404011664	0.5710731015132354	0.3689038773469826	0.6055147407026858	0.5588304787955459	0.3919841167354207	0.5631793969982873	0.5829079031182425	0.4177427234678328	0.581648320536202	0.6292934372973437	0.013315487653018493	1.2029627617524552	0.6297023651293181	0.004789067611724934	0.9462226471360244	0.621098101040574	0.0279285244584027	0.6891727451412029	0.5445261515023951	0.09153883123193321	0.5881703505757723	0.5479286397978732	0.06560768356146505	0.561090336452775	0.5703622318262751	0.014968392435291465	0.5848046418344305	0.5157064541738869	
